<svg xmlns="http://www.w3.org/2000/svg" viewBox="0 0 32 32" width="32" height="32">
  <rect width="32" height="32" rx="6" fill="#0a0a0c" />
  <!-- A pixelated S shape -->
  <rect x="6" y="6" width="4" height="4" rx="1" fill="#e5e5ea" />
  <rect x="11" y="6" width="4" height="4" rx="1" fill="#e5e5ea" />
  <rect x="16" y="6" width="4" height="4" rx="1" fill="#e5e5ea" />
  <rect x="21" y="6" width="4" height="4" rx="1" fill="#e5e5ea" />
  <rect x="6" y="11" width="4" height="4" rx="1" fill="#e5e5ea" />
  
  <rect x="6" y="16" width="4" height="4" rx="1" fill="#e5e5ea" />
  <rect x="11" y="16" width="4" height="4" rx="1" fill="#e5e5ea" />
  <rect x="16" y="16" width="4" height="4" rx="1" fill="#e5e5ea" />
  <rect x="21" y="16" width="4" height="4" rx="1" fill="#e5e5ea" />
  
  <rect x="21" y="21" width="4" height="4" rx="1" fill="#e5e5ea" />
  <rect x="21" y="26" width="4" height="4" rx="1" fill="#e5e5ea" />
  <rect x="16" y="26" width="4" height="4" rx="1" fill="#e5e5ea" />
  <rect x="11" y="26" width="4" height="4" rx="1" fill="#e5e5ea" />
  <rect x="6" y="26" width="4" height="4" rx="1" fill="#e5e5ea" />
  <!-- Red food -->
  <rect x="21" y="11" width="4" height="4" rx="1" fill="#ff3b30" />
</svg>
